# This file uses centimeters as units for non-parametric coordinates.

mtllib kwart reverse sphere.mtl
g default
v 0.000000 -7.426941 -1.176312
v -0.363501 -7.426941 -1.118740
v -0.691419 -7.426941 -0.951657
v -0.951657 -7.426941 -0.691419
v -1.118739 -7.426941 -0.363500
v -1.176312 -7.426941 0.000000
v -1.118739 -7.426941 0.363500
v -0.951657 -7.426941 0.691419
v -0.691419 -7.426941 0.951656
v -0.363500 -7.426941 1.118739
v -0.000000 -7.426941 1.176312
v 0.000000 -7.151487 -2.323660
v -0.718050 -7.151487 -2.209932
v -1.365813 -7.151487 -1.879880
v -1.879880 -7.151487 -1.365813
v -2.209932 -7.151487 -0.718050
v -2.323659 -7.151487 0.000000
v -2.209932 -7.151487 0.718050
v -1.879880 -7.151487 1.365813
v -1.365813 -7.151487 1.879880
v -0.718050 -7.151487 2.209931
v -0.000000 -7.151487 2.323659
v 0.000000 -6.699940 -3.413792
v -1.054920 -6.699940 -3.246709
v -2.006576 -6.699940 -2.761815
v -2.761815 -6.699940 -2.006576
v -3.246708 -6.699940 -1.054919
v -3.413791 -6.699940 0.000000
v -3.246708 -6.699940 1.054919
v -2.761815 -6.699940 2.006576
v -2.006576 -6.699940 2.761815
v -1.054919 -6.699940 3.246708
v -0.000000 -6.699940 3.413790
v 0.000000 -6.083418 -4.419864
v -1.365813 -6.083418 -4.203540
v -2.597931 -6.083418 -3.575745
v -3.575744 -6.083418 -2.597930
v -4.203539 -6.083418 -1.365813
v -4.419863 -6.083418 0.000000
v -4.203539 -6.083418 1.365813
v -3.575744 -6.083418 2.597930
v -2.597930 -6.083418 3.575744
v -1.365813 -6.083418 4.203539
v -0.000000 -6.083418 4.419862
v 0.000000 -5.317102 -5.317105
v -1.643076 -5.317102 -5.056867
v -3.125316 -5.317102 -4.301628
v -4.301627 -5.317102 -3.125315
v -5.056866 -5.317102 -1.643075
v -5.317104 -5.317102 0.000000
v -5.056866 -5.317102 1.643075
v -4.301627 -5.317102 3.125315
v -3.125315 -5.317102 4.301627
v -1.643075 -5.317102 5.056865
v -0.000000 -5.317102 5.317103
v 0.000000 -4.419862 -6.083421
v -1.879880 -4.419862 -5.785677
v -3.575745 -4.419862 -4.921591
v -4.921590 -4.419862 -3.575744
v -5.785676 -4.419862 -1.879880
v -6.083419 -4.419862 0.000000
v -5.785676 -4.419862 1.879880
v -4.921590 -4.419862 3.575744
v -3.575744 -4.419862 4.921589
v -1.879880 -4.419862 5.785675
v -0.000000 -4.419862 6.083419
v 0.000000 -3.413790 -6.699943
v -2.070396 -3.413790 -6.372025
v -3.938127 -3.413790 -5.420367
v -5.420367 -3.413790 -3.938127
v -6.372023 -3.413790 -2.070396
v -6.699942 -3.413790 0.000000
v -6.372023 -3.413790 2.070396
v -5.420367 -3.413790 3.938127
v -3.938127 -3.413790 5.420366
v -2.070396 -3.413790 6.372022
v -0.000000 -3.413790 6.699941
v 0.000000 -2.323659 -7.151491
v -2.209932 -2.323659 -6.801472
v -4.203540 -2.323659 -5.785677
v -5.785676 -2.323659 -4.203540
v -6.801470 -2.323659 -2.209932
v -7.151489 -2.323659 0.000000
v -6.801470 -2.323659 2.209932
v -5.785676 -2.323659 4.203539
v -4.203539 -2.323659 5.785676
v -2.209932 -2.323659 6.801469
v -0.000000 -2.323659 7.151488
v 0.000000 -1.176311 -7.426944
v -2.295052 -1.176311 -7.063443
v -4.365448 -1.176311 -6.008523
v -6.008523 -1.176311 -4.365447
v -7.063442 -1.176311 -2.295051
v -7.426942 -1.176311 0.000000
v -7.063442 -1.176311 2.295051
v -6.008522 -1.176311 4.365447
v -4.365447 -1.176311 6.008522
v -2.295051 -1.176311 7.063441
v -0.000000 -1.176311 7.426942
v 0.000000 0.000000 -7.519522
v -2.323660 0.000000 -7.151490
v -4.419864 0.000000 -6.083420
v -6.083420 0.000000 -4.419863
v -7.151489 0.000000 -2.323659
v -7.519520 0.000000 0.000000
v -7.151489 0.000000 2.323659
v -6.083419 0.000000 4.419863
v -4.419863 0.000000 6.083419
v -2.323659 0.000000 7.151488
v -0.000000 0.000000 7.519519
v 0.000000 -7.519518 0.000000
vt 0.200000 0.050000
vt 0.250000 0.050000
vt 0.300000 0.050000
vt 0.350000 0.050000
vt 0.400000 0.050000
vt 0.450000 0.050000
vt 0.500000 0.050000
vt 0.550000 0.050000
vt 0.600000 0.050000
vt 0.650000 0.050000
vt 0.700000 0.050000
vt 0.200000 0.100000
vt 0.250000 0.100000
vt 0.300000 0.100000
vt 0.350000 0.100000
vt 0.400000 0.100000
vt 0.450000 0.100000
vt 0.500000 0.100000
vt 0.550000 0.100000
vt 0.600000 0.100000
vt 0.650000 0.100000
vt 0.700000 0.100000
vt 0.200000 0.150000
vt 0.250000 0.150000
vt 0.300000 0.150000
vt 0.350000 0.150000
vt 0.400000 0.150000
vt 0.450000 0.150000
vt 0.500000 0.150000
vt 0.550000 0.150000
vt 0.600000 0.150000
vt 0.650000 0.150000
vt 0.700000 0.150000
vt 0.200000 0.200000
vt 0.250000 0.200000
vt 0.300000 0.200000
vt 0.350000 0.200000
vt 0.400000 0.200000
vt 0.450000 0.200000
vt 0.500000 0.200000
vt 0.550000 0.200000
vt 0.600000 0.200000
vt 0.650000 0.200000
vt 0.700000 0.200000
vt 0.200000 0.250000
vt 0.250000 0.250000
vt 0.300000 0.250000
vt 0.350000 0.250000
vt 0.400000 0.250000
vt 0.450000 0.250000
vt 0.500000 0.250000
vt 0.550000 0.250000
vt 0.600000 0.250000
vt 0.650000 0.250000
vt 0.700000 0.250000
vt 0.200000 0.300000
vt 0.250000 0.300000
vt 0.300000 0.300000
vt 0.350000 0.300000
vt 0.400000 0.300000
vt 0.450000 0.300000
vt 0.500000 0.300000
vt 0.550000 0.300000
vt 0.600000 0.300000
vt 0.650000 0.300000
vt 0.700000 0.300000
vt 0.200000 0.350000
vt 0.250000 0.350000
vt 0.300000 0.350000
vt 0.350000 0.350000
vt 0.400000 0.350000
vt 0.450000 0.350000
vt 0.500000 0.350000
vt 0.550000 0.350000
vt 0.600000 0.350000
vt 0.650000 0.350000
vt 0.700000 0.350000
vt 0.200000 0.400000
vt 0.250000 0.400000
vt 0.300000 0.400000
vt 0.350000 0.400000
vt 0.400000 0.400000
vt 0.450000 0.400000
vt 0.500000 0.400000
vt 0.550000 0.400000
vt 0.600000 0.400000
vt 0.650000 0.400000
vt 0.700000 0.400000
vt 0.200000 0.450000
vt 0.250000 0.450000
vt 0.300000 0.450000
vt 0.350000 0.450000
vt 0.400000 0.450000
vt 0.450000 0.450000
vt 0.500000 0.450000
vt 0.550000 0.450000
vt 0.600000 0.450000
vt 0.650000 0.450000
vt 0.700000 0.450000
vt 0.200000 0.500000
vt 0.250000 0.500000
vt 0.300000 0.500000
vt 0.350000 0.500000
vt 0.400000 0.500000
vt 0.450000 0.500000
vt 0.500000 0.500000
vt 0.550000 0.500000
vt 0.600000 0.500000
vt 0.650000 0.500000
vt 0.700000 0.500000
vt 0.225000 0.000000
vt 0.275000 0.000000
vt 0.325000 0.000000
vt 0.375000 0.000000
vt 0.425000 0.000000
vt 0.475000 0.000000
vt 0.525000 0.000000
vt 0.575000 0.000000
vt 0.625000 0.000000
vt 0.675000 0.000000
vn 0.031718 0.979229 0.200260
vn 0.052760 0.941410 0.333113
vn 0.103081 0.942722 0.317251
vn 0.061915 0.979722 0.190555
vn 0.196072 0.942722 0.269870
vn 0.117769 0.979722 0.162095
vn 0.269870 0.942722 0.196072
vn 0.162096 0.979722 0.117769
vn 0.317252 0.942722 0.103082
vn 0.190555 0.979722 0.061915
vn 0.333578 0.942722 0.000000
vn 0.200361 0.979722 0.000000
vn 0.317252 0.942722 -0.103081
vn 0.190555 0.979722 -0.061915
vn 0.269870 0.942722 -0.196072
vn 0.162096 0.979722 -0.117769
vn 0.196072 0.942722 -0.269870
vn 0.117769 0.979722 -0.162095
vn 0.103081 0.942722 -0.317252
vn 0.061915 0.979722 -0.190555
vn 0.052760 0.941409 -0.333114
vn 0.031718 0.979229 -0.200260
vn 0.074353 0.879824 0.469449
vn 0.145470 0.882266 0.447711
vn 0.276701 0.882266 0.380846
vn 0.380846 0.882266 0.276701
vn 0.447712 0.882266 0.145470
vn 0.470752 0.882266 0.000000
vn 0.447712 0.882266 -0.145470
vn 0.380846 0.882266 -0.276701
vn 0.276701 0.882266 -0.380846
vn 0.145470 0.882266 -0.447712
vn 0.074353 0.879823 -0.469449
vn 0.094552 0.796667 0.596977
vn 0.185307 0.800252 0.570314
vn 0.352474 0.800252 0.485138
vn 0.485138 0.800252 0.352473
vn 0.570314 0.800252 0.185306
vn 0.599664 0.800252 0.000000
vn 0.570314 0.800252 -0.185306
vn 0.485138 0.800252 -0.352474
vn 0.352474 0.800252 -0.485138
vn 0.185306 0.800252 -0.570314
vn 0.094552 0.796667 -0.596978
vn 0.112577 0.694346 0.710781
vn 0.221049 0.698788 0.680318
vn 0.420460 0.698788 0.578713
vn 0.578713 0.698789 0.420459
vn 0.680318 0.698788 0.221049
vn 0.715328 0.698788 0.000000
vn 0.680318 0.698789 -0.221049
vn 0.578713 0.698788 -0.420460
vn 0.420459 0.698788 -0.578713
vn 0.221049 0.698788 -0.680318
vn 0.112577 0.694346 -0.710781
vn 0.127918 0.575633 0.807641
vn 0.251642 0.580401 0.774475
vn 0.478652 0.580401 0.658808
vn 0.658808 0.580401 0.478652
vn 0.774475 0.580401 0.251642
vn 0.814331 0.580401 0.000000
vn 0.774475 0.580401 -0.251642
vn 0.658808 0.580401 -0.478652
vn 0.478652 0.580401 -0.658808
vn 0.251642 0.580401 -0.774475
vn 0.127918 0.575632 -0.807641
vn 0.140203 0.443569 0.885206
vn 0.276273 0.447994 0.850279
vn 0.525502 0.447994 0.723291
vn 0.723291 0.447994 0.525501
vn 0.850279 0.447994 0.276272
vn 0.894037 0.447994 -0.000000
vn 0.850279 0.447994 -0.276273
vn 0.723291 0.447994 -0.525502
vn 0.525501 0.447994 -0.723291
vn 0.276273 0.447994 -0.850280
vn 0.140203 0.443569 -0.885206
vn 0.149161 0.301379 0.941765
vn 0.294314 0.304789 0.905805
vn 0.559819 0.304789 0.770524
vn 0.770524 0.304789 0.559818
vn 0.905805 0.304789 0.294314
vn 0.952420 0.304789 -0.000000
vn 0.905805 0.304789 -0.294314
vn 0.770524 0.304788 -0.559819
vn 0.559818 0.304788 -0.770524
vn 0.294314 0.304789 -0.905805
vn 0.149161 0.301379 -0.941765
vn 0.154607 0.152394 0.976152
vn 0.305319 0.154249 0.939674
vn 0.580751 0.154249 0.799335
vn 0.799335 0.154249 0.580751
vn 0.939674 0.154248 0.305319
vn 0.988032 0.154248 -0.000000
vn 0.939674 0.154248 -0.305319
vn 0.799335 0.154248 -0.580751
vn 0.580751 0.154249 -0.799335
vn 0.305319 0.154249 -0.939674
vn 0.154607 0.152394 -0.976152
vn 0.155964 0.077499 0.984718
vn 0.308065 0.078459 0.948125
vn 0.585974 0.078459 0.806523
vn 0.806523 0.078459 0.585973
vn 0.948125 0.078459 0.308064
vn 0.996917 0.078458 -0.000000
vn 0.948125 0.078458 -0.308064
vn 0.806523 0.078459 -0.585973
vn 0.585973 0.078459 -0.806523
vn 0.308064 0.078459 -0.948125
vn 0.155964 0.077499 -0.984718
vn 0.050871 0.998705 -0.000000
s 1
g pSphere1
usemtl initialShadingGroup
f 1/1/1 12/12/2 13/13/3 2/2/4
f 2/2/4 13/13/3 14/14/5 3/3/6
f 3/3/6 14/14/5 15/15/7 4/4/8
f 4/4/8 15/15/7 16/16/9 5/5/10
f 5/5/10 16/16/9 17/17/11 6/6/12
f 6/6/12 17/17/11 18/18/13 7/7/14
f 7/7/14 18/18/13 19/19/15 8/8/16
f 8/8/16 19/19/15 20/20/17 9/9/18
f 9/9/18 20/20/17 21/21/19 10/10/20
f 10/10/20 21/21/19 22/22/21 11/11/22
f 12/12/2 23/23/23 24/24/24 13/13/3
f 13/13/3 24/24/24 25/25/25 14/14/5
f 14/14/5 25/25/25 26/26/26 15/15/7
f 15/15/7 26/26/26 27/27/27 16/16/9
f 16/16/9 27/27/27 28/28/28 17/17/11
f 17/17/11 28/28/28 29/29/29 18/18/13
f 18/18/13 29/29/29 30/30/30 19/19/15
f 19/19/15 30/30/30 31/31/31 20/20/17
f 20/20/17 31/31/31 32/32/32 21/21/19
f 21/21/19 32/32/32 33/33/33 22/22/21
f 23/23/23 34/34/34 35/35/35 24/24/24
f 24/24/24 35/35/35 36/36/36 25/25/25
f 25/25/25 36/36/36 37/37/37 26/26/26
f 26/26/26 37/37/37 38/38/38 27/27/27
f 27/27/27 38/38/38 39/39/39 28/28/28
f 28/28/28 39/39/39 40/40/40 29/29/29
f 29/29/29 40/40/40 41/41/41 30/30/30
f 30/30/30 41/41/41 42/42/42 31/31/31
f 31/31/31 42/42/42 43/43/43 32/32/32
f 32/32/32 43/43/43 44/44/44 33/33/33
f 34/34/34 45/45/45 46/46/46 35/35/35
f 35/35/35 46/46/46 47/47/47 36/36/36
f 36/36/36 47/47/47 48/48/48 37/37/37
f 37/37/37 48/48/48 49/49/49 38/38/38
f 38/38/38 49/49/49 50/50/50 39/39/39
f 39/39/39 50/50/50 51/51/51 40/40/40
f 40/40/40 51/51/51 52/52/52 41/41/41
f 41/41/41 52/52/52 53/53/53 42/42/42
f 42/42/42 53/53/53 54/54/54 43/43/43
f 43/43/43 54/54/54 55/55/55 44/44/44
f 45/45/45 56/56/56 57/57/57 46/46/46
f 46/46/46 57/57/57 58/58/58 47/47/47
f 47/47/47 58/58/58 59/59/59 48/48/48
f 48/48/48 59/59/59 60/60/60 49/49/49
f 49/49/49 60/60/60 61/61/61 50/50/50
f 50/50/50 61/61/61 62/62/62 51/51/51
f 51/51/51 62/62/62 63/63/63 52/52/52
f 52/52/52 63/63/63 64/64/64 53/53/53
f 53/53/53 64/64/64 65/65/65 54/54/54
f 54/54/54 65/65/65 66/66/66 55/55/55
f 56/56/56 67/67/67 68/68/68 57/57/57
f 57/57/57 68/68/68 69/69/69 58/58/58
f 58/58/58 69/69/69 70/70/70 59/59/59
f 59/59/59 70/70/70 71/71/71 60/60/60
f 60/60/60 71/71/71 72/72/72 61/61/61
f 61/61/61 72/72/72 73/73/73 62/62/62
f 62/62/62 73/73/73 74/74/74 63/63/63
f 63/63/63 74/74/74 75/75/75 64/64/64
f 64/64/64 75/75/75 76/76/76 65/65/65
f 65/65/65 76/76/76 77/77/77 66/66/66
f 67/67/67 78/78/78 79/79/79 68/68/68
f 68/68/68 79/79/79 80/80/80 69/69/69
f 69/69/69 80/80/80 81/81/81 70/70/70
f 70/70/70 81/81/81 82/82/82 71/71/71
f 71/71/71 82/82/82 83/83/83 72/72/72
f 72/72/72 83/83/83 84/84/84 73/73/73
f 73/73/73 84/84/84 85/85/85 74/74/74
f 74/74/74 85/85/85 86/86/86 75/75/75
f 75/75/75 86/86/86 87/87/87 76/76/76
f 76/76/76 87/87/87 88/88/88 77/77/77
f 78/78/78 89/89/89 90/90/90 79/79/79
f 79/79/79 90/90/90 91/91/91 80/80/80
f 80/80/80 91/91/91 92/92/92 81/81/81
f 81/81/81 92/92/92 93/93/93 82/82/82
f 82/82/82 93/93/93 94/94/94 83/83/83
f 83/83/83 94/94/94 95/95/95 84/84/84
f 84/84/84 95/95/95 96/96/96 85/85/85
f 85/85/85 96/96/96 97/97/97 86/86/86
f 86/86/86 97/97/97 98/98/98 87/87/87
f 87/87/87 98/98/98 99/99/99 88/88/88
f 89/89/89 100/100/100 101/101/101 90/90/90
f 90/90/90 101/101/101 102/102/102 91/91/91
f 91/91/91 102/102/102 103/103/103 92/92/92
f 92/92/92 103/103/103 104/104/104 93/93/93
f 93/93/93 104/104/104 105/105/105 94/94/94
f 94/94/94 105/105/105 106/106/106 95/95/95
f 95/95/95 106/106/106 107/107/107 96/96/96
f 96/96/96 107/107/107 108/108/108 97/97/97
f 97/97/97 108/108/108 109/109/109 98/98/98
f 98/98/98 109/109/109 110/110/110 99/99/99
f 2/2/4 111/111/111 1/1/1
f 3/3/6 111/112/111 2/2/4
f 4/4/8 111/113/111 3/3/6
f 5/5/10 111/114/111 4/4/8
f 6/6/12 111/115/111 5/5/10
f 7/7/14 111/116/111 6/6/12
f 8/8/16 111/117/111 7/7/14
f 9/9/18 111/118/111 8/8/16
f 10/10/20 111/119/111 9/9/18
f 11/11/22 111/120/111 10/10/20
