# Blender v2.79 (sub 0) OBJ File: ''
# www.blender.org
mtllib Vin.mtl
o pCube1
v 0.826331 0.070591 1.886300
v 0.826331 -0.190197 1.904069
v 3.595719 -0.229040 2.216694
v 3.595719 -0.000000 2.216694
v 1.544320 -0.339021 1.708301
v 3.595719 -0.400820 1.939607
v 7.288236 -0.400820 1.813776
v 7.288236 -0.229040 2.072886
v 7.288236 -0.000000 2.072887
v 0.711605 1.124608 -0.087743
v 0.749846 0.768304 1.049852
v 3.289783 0.786579 1.016517
v 3.136815 1.098738 -0.137745
v 1.510327 0.519611 1.698098
v 3.519235 0.482945 1.916650
v 7.173510 0.462378 1.779340
v 6.829332 0.704312 0.898699
v 6.599881 0.926035 -0.206617
v 0.648735 0.732821 -1.992915
v 0.707932 1.292792 -1.975146
v 3.122131 1.173265 -2.216694
v 2.885335 0.676789 -2.216694
v 1.457705 1.457203 -1.750094
v 3.400838 1.458550 -1.962565
v 6.995914 1.124608 -1.848212
v 6.577854 0.905829 -2.072886
v 6.222662 0.522150 -2.072887
v 0.826331 -0.330229 -0.053307
v 0.826331 -0.312674 -1.143885
v 3.595719 -0.458080 -1.108347
v 3.595719 -0.458080 -0.000000
v 1.491699 -0.190282 -1.739890
v 3.477321 -0.312674 -1.939607
v 7.110640 -0.330229 -1.813776
v 7.288236 -0.458080 -1.036443
v 7.288236 -0.458080 -0.000000
v 13.750141 -0.000000 1.076761
v 13.750141 -0.229040 1.076761
v 14.673271 -0.229040 0.533116
v 14.673271 -0.000000 0.533116
v 13.032152 -0.356284 1.052993
v 13.750141 -0.400820 0.605020
v 13.750141 -0.400820 -0.000000
v 14.673271 -0.229040 -0.000000
v 14.673271 0.000000 0.000000
v 0.707932 0.144466 -1.975146
v -0.096799 0.123546 -1.250499
v -0.096799 0.676789 -1.321576
v -0.096799 0.053322 -0.213228
v -0.096799 0.522150 -0.319843
v 10.980753 -0.400820 1.436280
v 10.980753 -0.229040 1.641463
v 10.980753 -0.000000 1.641463
v 13.750141 0.229040 1.076761
v 10.980753 0.229040 1.641463
v 12.998159 0.370872 1.042789
v 10.904268 0.433641 1.413323
v 7.288236 0.229040 2.072886
v 3.595719 0.229040 2.216694
v 0.826331 0.317186 1.904069
v 10.674818 0.589366 0.728902
v 13.673658 0.433641 0.582063
v 13.635416 0.462378 -0.034436
v 10.521850 0.704312 -0.137745
v 13.673658 0.482945 -0.627977
v 10.674818 0.786579 -0.912561
v 12.945539 0.519611 -1.063196
v 10.785872 0.768304 -1.459238
v 6.829332 1.098738 -1.174188
v 3.289783 1.378219 -1.200177
v 0.749846 1.458550 -1.166843
v 10.507165 0.581626 -1.641463
v 13.631743 0.317186 -1.076761
v 13.572546 0.070591 -1.076761
v 10.270370 0.282362 -1.641463
v 13.631743 -0.190197 -1.076761
v 10.507165 -0.073667 -1.641463
v 12.979532 -0.339021 -1.052993
v 10.862356 -0.361977 -1.436280
v 6.577854 0.053322 -2.072886
v 3.122131 0.123546 -2.216694
v 10.980753 -0.458080 -0.820732
v 13.750141 -0.400820 -0.605020
v 10.980753 -0.458080 -0.000000
v 10.980753 -0.458080 0.820732
v 7.288236 -0.458080 1.036443
v 3.595719 -0.458080 1.108347
v 0.826331 -0.361977 1.072809
v 14.673271 -0.229040 -0.533116
v 14.673271 0.000000 -0.533116
v 14.673271 0.229040 -0.533116
v 14.673271 0.229040 0.000000
v 14.673271 0.229040 0.533116
v -0.096799 -0.073667 0.966195
v -0.096799 0.282362 0.895119
v -0.096799 0.581626 0.966195
v -0.096799 0.905829 -0.213228
v -0.096799 1.173265 -1.250499
vt 0.108960 0.351827
vt 0.102095 0.333943
vt 0.285026 0.317848
vt 0.285415 0.331890
vt 0.150905 0.308085
vt 0.283986 0.298104
vt 0.509439 0.301638
vt 0.507561 0.320453
vt 0.507096 0.334385
vt 0.114760 0.496621
vt 0.116097 0.426924
vt 0.267884 0.426660
vt 0.258654 0.497910
vt 0.159169 0.384414
vt 0.281648 0.369570
vt 0.500415 0.371132
vt 0.481924 0.427608
vt 0.470732 0.497732
vt 0.095312 0.626473
vt 0.117872 0.599521
vt 0.254358 0.636004
vt 0.236335 0.668950
vt 0.158857 0.589470
vt 0.272125 0.611944
vt 0.500283 0.601286
vt 0.476992 0.625281
vt 0.459587 0.654644
vt 0.083349 0.186026
vt 0.078612 0.104202
vt 0.279147 0.097919
vt 0.279124 0.173675
vt 0.124587 0.056096
vt 0.271582 0.038038
vt 0.527015 0.065797
vt 0.531676 0.120862
vt 0.522938 0.188499
vt 0.884420 0.362215
vt 0.886771 0.349717
vt 0.955218 0.366255
vt 0.943115 0.379910
vt 0.851607 0.334075
vt 0.900612 0.324703
vt 0.920131 0.291963
vt 0.979432 0.328614
vt 0.980205 0.407223
vt 0.962833 0.412548
vt 0.068734 0.666146
vt 0.009286 0.587813
vt 0.052129 0.577168
vt 0.060184 0.032891
vt 0.000084 0.095495
vt 0.004673 0.179038
vt 0.000084 0.496231
vt 0.035799 0.509460
vt 0.731873 0.317548
vt 0.728655 0.332944
vt 0.727585 0.346461
vt 0.882158 0.374233
vt 0.726558 0.359923
vt 0.842193 0.383657
vt 0.722985 0.377996
vt 0.506653 0.348256
vt 0.285877 0.345693
vt 0.115928 0.367260
vt 0.713604 0.420827
vt 0.883054 0.404058
vt 0.888976 0.436633
vt 0.710248 0.474007
vt 0.899999 0.469676
vt 0.725296 0.520184
vt 0.862805 0.503929
vt 0.737064 0.552597
vt 0.487442 0.558703
vt 0.266817 0.564096
vt 0.122892 0.556620
vt 0.725170 0.573257
vt 0.908342 0.498958
vt 0.916268 0.513265
vt 0.718351 0.596816
vt 0.931192 0.524406
vt 0.740937 0.612833
vt 0.945186 0.216987
vt 0.897698 0.207777
vt 0.770602 0.141437
vt 0.756143 0.111326
vt 0.495775 0.027781
vt 0.489024 0.680389
vt 0.244716 0.000084
vt 0.250038 0.708868
vt 0.767609 0.182175
vt 0.937468 0.254693
vt 0.754297 0.232584
vt 0.741292 0.281277
vt 0.514891 0.253841
vt 0.281278 0.246852
vt 0.093345 0.270210
vt 0.999916 0.290465
vt 0.981960 0.454243
vt 0.964446 0.450626
vt 0.950120 0.446666
vt 0.946138 0.417687
vt 0.933865 0.391028
vt 0.018363 0.273158
vt 0.025824 0.401840
vt 0.045306 0.421251
vt 0.065910 0.429895
vt 0.062035 0.504910
vt 0.078576 0.564182
vn -0.3618 0.0146 0.9321
vn -0.2693 -0.6474 0.7129
vn -0.0241 -0.5594 0.8286
vn -0.0296 0.0038 0.9996
vn -0.0892 -0.9751 0.2031
vn -0.0121 -0.9777 0.2099
vn 0.0159 -0.9728 0.2310
vn 0.0638 -0.5247 0.8489
vn 0.0775 -0.0000 0.9970
vn -0.0650 0.9589 0.2764
vn -0.0750 0.9482 0.3087
vn 0.0213 0.9631 0.2684
vn 0.0378 0.9676 0.2495
vn -0.0665 0.8980 0.4350
vn 0.0071 0.9077 0.4197
vn 0.0350 0.9249 0.3787
vn 0.0366 0.9742 0.2228
vn 0.0521 0.9795 0.1944
vn -0.2875 0.0145 -0.9577
vn -0.2129 0.6720 -0.7093
vn -0.0015 0.3607 -0.9327
vn -0.0229 -0.0104 -0.9997
vn -0.0471 0.9865 -0.1571
vn 0.0472 0.9838 -0.1730
vn 0.0976 0.9624 -0.2534
vn 0.0873 0.2437 -0.9659
vn 0.0706 -0.0133 -0.9974
vn -0.1321 -0.9910 -0.0226
vn -0.1346 -0.9854 -0.1045
vn -0.0197 -0.9973 -0.0712
vn -0.0194 -0.9998 -0.0049
vn -0.1480 -0.8574 -0.4929
vn -0.0193 -0.9012 -0.4329
vn 0.0258 -0.8842 -0.4664
vn 0.0024 -0.9973 -0.0731
vn 0.0000 -1.0000 -0.0000
vn 0.2875 0.0000 0.9578
vn 0.2527 -0.5045 0.8256
vn 0.4005 -0.8578 0.3222
vn 0.7592 0.0000 0.6509
vn 0.0860 -0.9523 0.2929
vn 0.0595 -0.9966 0.0566
vn 0.0554 -0.9985 0.0000
vn 0.3861 -0.9225 -0.0000
vn 1.0000 0.0000 0.0000
vn -0.2641 -0.3949 -0.8799
vn -0.6687 -0.6602 -0.3421
vn -0.8927 -0.0132 -0.4504
vn -0.6867 -0.7260 -0.0371
vn -1.0000 0.0000 0.0000
vn 0.0346 -0.9702 0.2397
vn 0.1306 -0.4650 0.8756
vn 0.1524 0.0000 0.9883
vn 0.2479 0.5310 0.8103
vn 0.1285 0.4867 0.8641
vn 0.1049 0.9292 0.3544
vn 0.0573 0.9358 0.3478
vn 0.0648 0.5230 0.8499
vn -0.0177 0.4566 0.8895
vn -0.2911 0.4817 0.8266
vn 0.0483 0.9838 0.1724
vn 0.0951 0.9861 0.1362
vn 0.1035 0.9919 0.0740
vn 0.0598 0.9892 0.1338
vn 0.1305 0.9915 -0.0005
vn 0.0771 0.9932 0.0877
vn 0.1691 0.9214 -0.3500
vn 0.1249 0.9391 -0.3201
vn 0.0725 0.9871 0.1430
vn 0.0519 0.9823 0.1802
vn -0.0482 0.9869 0.1541
vn 0.1417 0.1585 -0.9771
vn 0.2485 0.2525 -0.9352
vn 0.2394 0.0270 -0.9706
vn 0.1309 0.0082 -0.9914
vn 0.2329 -0.3417 -0.9105
vn 0.1250 -0.2179 -0.9679
vn 0.0990 -0.8975 -0.4298
vn 0.0467 -0.9076 -0.4172
vn 0.0680 -0.2222 -0.9726
vn -0.0203 -0.2626 -0.9647
vn 0.0112 -0.9978 -0.0646
vn 0.0602 -0.9952 -0.0774
vn 0.0076 -1.0000 -0.0000
vn 0.0104 -0.9993 0.0372
vn 0.0019 -0.9994 0.0341
vn -0.0151 -0.9996 0.0254
vn -0.1070 -0.9940 0.0210
vn 0.3830 -0.8461 -0.3708
vn 0.6994 0.0139 -0.7146
vn 0.4948 0.7654 -0.4114
vn 0.3998 0.9164 0.0201
vn 0.3950 0.8605 0.3217
vn -0.5882 -0.7917 0.1651
vn -0.9472 -0.0257 0.3195
vn -0.5741 0.7174 0.3947
vn -0.5983 0.7689 0.2256
vn -0.5758 0.8085 -0.1218
usemtl texturedFacets
s 1
f 1/1/1 2/2/2 3/3/3 4/4/4
f 2/2/2 5/5/5 6/6/6 3/3/3
f 3/3/3 6/6/6 7/7/7 8/8/8
f 4/4/4 3/3/3 8/8/8 9/9/9
f 10/10/10 11/11/11 12/12/12 13/13/13
f 11/11/11 14/14/14 15/15/15 12/12/12
f 12/12/12 15/15/15 16/16/16 17/17/17
f 13/13/13 12/12/12 17/17/17 18/18/18
f 19/19/19 20/20/20 21/21/21 22/22/22
f 20/20/20 23/23/23 24/24/24 21/21/21
f 21/21/21 24/24/24 25/25/25 26/26/26
f 22/22/22 21/21/21 26/26/26 27/27/27
f 28/28/28 29/29/29 30/30/30 31/31/31
f 29/29/29 32/32/32 33/33/33 30/30/30
f 30/30/30 33/33/33 34/34/34 35/35/35
f 31/31/31 30/30/30 35/35/35 36/36/36
f 37/37/37 38/38/38 39/39/39 40/40/40
f 38/38/38 41/41/41 42/42/42 39/39/39
f 39/39/39 42/42/42 43/43/43 44/44/44
f 40/40/40 39/39/39 44/45/44 45/46/45
f 19/19/19 46/47/46 47/48/47 48/49/48
f 46/50/46 32/32/32 29/29/29 47/51/47
f 47/51/47 29/29/29 28/28/28 49/52/49
f 48/49/48 47/48/47 49/53/49 50/54/50
f 7/7/7 51/55/51 52/56/52 8/8/8
f 51/55/51 41/41/41 38/38/38 52/56/52
f 52/56/52 38/38/38 37/37/37 53/57/53
f 8/8/8 52/56/52 53/57/53 9/9/9
f 37/37/37 54/58/54 55/59/55 53/57/53
f 54/58/54 56/60/56 57/61/57 55/59/55
f 55/59/55 57/61/57 16/16/16 58/62/58
f 53/57/53 55/59/55 58/62/58 9/9/9
f 16/16/16 15/15/15 59/63/59 58/62/58
f 15/15/15 14/14/14 60/64/60 59/63/59
f 59/63/59 60/64/60 1/1/1 4/4/4
f 58/62/58 59/63/59 4/4/4 9/9/9
f 16/16/16 57/61/57 61/65/61 17/17/17
f 57/61/57 56/60/56 62/66/62 61/65/61
f 61/65/61 62/66/62 63/67/63 64/68/64
f 17/17/17 61/65/61 64/68/64 18/18/18
f 63/67/63 65/69/65 66/70/66 64/68/64
f 65/69/65 67/71/67 68/72/68 66/70/66
f 66/70/66 68/72/68 25/25/25 69/73/69
f 64/68/64 66/70/66 69/73/69 18/18/18
f 25/25/25 24/24/24 70/74/70 69/73/69
f 24/24/24 23/23/23 71/75/71 70/74/70
f 70/74/70 71/75/71 10/10/10 13/13/13
f 69/73/69 70/74/70 13/13/13 18/18/18
f 25/25/25 68/72/68 72/76/72 26/26/26
f 68/72/68 67/71/67 73/77/73 72/76/72
f 72/76/72 73/77/73 74/78/74 75/79/75
f 26/26/26 72/76/72 75/79/75 27/27/27
f 74/78/74 76/80/76 77/81/77 75/79/75
f 76/82/76 78/83/78 79/84/79 77/85/77
f 77/85/77 79/84/79 34/34/34 80/86/80
f 75/79/75 77/81/77 80/87/80 27/27/27
f 34/34/34 33/33/33 81/88/81 80/86/80
f 33/33/33 32/32/32 46/50/46 81/88/81
f 81/89/81 46/47/46 19/19/19 22/22/22
f 80/87/80 81/89/81 22/22/22 27/27/27
f 34/34/34 79/84/79 82/90/82 35/35/35
f 79/84/79 78/83/78 83/91/83 82/90/82
f 82/90/82 83/91/83 43/43/43 84/92/84
f 35/35/35 82/90/82 84/92/84 36/36/36
f 43/43/43 42/42/42 85/93/85 84/92/84
f 42/42/42 41/41/41 51/55/51 85/93/85
f 85/93/85 51/55/51 7/7/7 86/94/86
f 84/92/84 85/93/85 86/94/86 36/36/36
f 7/7/7 6/6/6 87/95/87 86/94/86
f 6/6/6 5/5/5 88/96/88 87/95/87
f 87/95/87 88/96/88 28/28/28 31/31/31
f 86/94/86 87/95/87 31/31/31 36/36/36
f 43/43/43 83/91/83 89/97/89 44/44/44
f 83/91/83 78/83/78 76/82/76 89/97/89
f 89/98/89 76/80/76 74/78/74 90/99/90
f 44/45/44 89/98/89 90/99/90 45/46/45
f 74/78/74 73/77/73 91/100/91 90/99/90
f 73/77/73 67/71/67 65/69/65 91/100/91
f 91/100/91 65/69/65 63/67/63 92/101/92
f 90/99/90 91/100/91 92/101/92 45/46/45
f 63/67/63 62/66/62 93/102/93 92/101/92
f 62/66/62 56/60/56 54/58/54 93/102/93
f 93/102/93 54/58/54 37/37/37 40/40/40
f 92/101/92 93/102/93 40/40/40 45/46/45
f 28/28/28 88/96/88 94/103/94 49/52/49
f 88/96/88 5/5/5 2/2/2 94/103/94
f 94/104/94 2/2/2 1/1/1 95/105/95
f 49/53/49 94/104/94 95/105/95 50/54/50
f 1/1/1 60/64/60 96/106/96 95/105/95
f 60/64/60 14/14/14 11/11/11 96/106/96
f 96/106/96 11/11/11 10/10/10 97/107/97
f 95/105/95 96/106/96 97/107/97 50/54/50
f 10/10/10 71/75/71 98/108/98 97/107/97
f 71/75/71 23/23/23 20/20/20 98/108/98
f 98/108/98 20/20/20 19/19/19 48/49/48
f 97/107/97 98/108/98 48/49/48 50/54/50
